<svg width="56" height="56" viewBox="0 0 56 56" fill="none" xmlns="http://www.w3.org/2000/svg"><path d="M56 28C56 12.536 43.464 0 28 0C12.536 0 0 12.536 0 28C0 43.464 12.536 56 28 56C43.464 56 56 43.464 56 28Z" fill="black"></path><path d="M17.1456 33.9868C17.3424 33.7901 17.6093 33.6797 17.8875 33.6797H43.5557C44.0232 33.6797 44.2573 34.2451 43.9265 34.5756L38.8545 39.6435C38.6578 39.8402 38.3909 39.9507 38.1127 39.9507H12.4445C11.9769 39.9507 11.7429 39.3852 12.0737 39.0547L17.1456 33.9868Z" fill="url(#solana_svg__paint0_linear_7784_9126)"></path><path d="M17.1456 15.0493C17.3424 14.8526 17.6093 14.7422 17.8875 14.7422H43.5557C44.0232 14.7422 44.2573 15.3076 43.9265 15.6381L38.8545 20.7061C38.6578 20.9027 38.3909 21.0131 38.1127 21.0131H12.4445C11.9769 21.0131 11.7429 20.4478 12.0737 20.1173L17.1456 15.0493Z" fill="url(#solana_svg__paint1_linear_7784_9126)"></path><path d="M38.8545 24.4555C38.6578 24.2589 38.3909 24.1484 38.1127 24.1484H12.4445C11.9769 24.1484 11.7429 24.7139 12.0737 25.0443L17.1456 30.1123C17.3424 30.3089 17.6093 30.4194 17.8875 30.4194H43.5557C44.0232 30.4194 44.2573 29.854 43.9265 29.5234L38.8545 24.4555Z" fill="url(#solana_svg__paint2_linear_7784_9126)"></path><defs><linearGradient id="solana_svg__paint0_linear_7784_9126" x1="33.6626" y1="7.83239" x2="15.898" y2="41.8587" gradientUnits="userSpaceOnUse"><stop stop-color="#00FFA3"></stop><stop offset="1" stop-color="#DC1FFF"></stop></linearGradient><linearGradient id="solana_svg__paint1_linear_7784_9126" x1="33.6626" y1="7.82845" x2="15.898" y2="41.8548" gradientUnits="userSpaceOnUse"><stop stop-color="#00FFA3"></stop><stop offset="1" stop-color="#DC1FFF"></stop></linearGradient><linearGradient id="solana_svg__paint2_linear_7784_9126" x1="33.6626" y1="7.82821" x2="15.898" y2="41.8546" gradientUnits="userSpaceOnUse"><stop stop-color="#00FFA3"></stop><stop offset="1" stop-color="#DC1FFF"></stop></linearGradient></defs></svg>