<svg width="32" height="32" viewBox="0 0 32 32" fill="none" xmlns="http://www.w3.org/2000/svg"><path d="M26.9459 11.6589C26.9459 11.8844 26.9459 12.1098 26.9459 12.3031C26.9459 18.9697 21.8573 26.667 12.582 26.667C9.71564 26.667 7.07474 25.8296 4.82031 24.4126C5.20679 24.4448 5.62547 24.477 6.01194 24.477C8.36299 24.477 10.553 23.6718 12.2921 22.3192C10.0699 22.287 8.20195 20.8055 7.59004 18.8087C7.9121 18.8731 8.20195 18.9053 8.55622 18.9053C9.00711 18.9053 9.45799 18.8409 9.87667 18.7121C7.55783 18.2612 5.8187 16.2322 5.8187 13.7845C5.8187 13.7523 5.8187 13.7523 5.8187 13.7201C6.49503 14.1066 7.26798 14.332 8.10534 14.3643C6.75268 13.4625 5.85091 11.9166 5.85091 10.1453C5.85091 9.21128 6.10856 8.34171 6.52724 7.60097C9.00711 10.6606 12.743 12.6573 16.9298 12.8828C16.8332 12.5285 16.801 12.1098 16.801 11.7234C16.801 8.92142 19.0554 6.66699 21.8573 6.66699C23.3066 6.66699 24.6271 7.27891 25.5288 8.24509C26.6883 8.01965 27.7511 7.60097 28.7495 7.02126C28.363 8.21289 27.5578 9.17907 26.5272 9.82319C27.5578 9.69437 28.524 9.43672 29.4258 9.01804C28.7817 10.0486 27.9443 10.9504 26.9459 11.6589Z" fill="currentColor"></path></svg>