<svg width="24" height="24" fill="none" xmlns="http://www.w3.org/2000/svg"><path d="M9.046 13.4H6.554C5.696 13.4 5 14.096 5 14.954v2.492C5 18.305 5.696 19 6.554 19h2.492c.858 0 1.554-.695 1.554-1.554v-2.492c0-.858-.696-1.554-1.554-1.554zM17.45 5H14.96c-.858 0-1.554.696-1.554 1.554v2.492c0 .858.696 1.554 1.554 1.554h2.492c.858 0 1.554-.696 1.554-1.554V6.554c0-.858-.696-1.554-1.554-1.554zM9.046 5H6.554C5.696 5 5 5.696 5 6.554v2.492c0 .858.696 1.554 1.554 1.554h2.492c.858 0 1.554-.696 1.554-1.554V6.554C10.6 5.696 9.904 5 9.046 5zm8.405 8.4H14.96c-.858 0-1.554.696-1.554 1.554v2.492c0 .859.696 1.554 1.554 1.554h2.492c.858 0 1.554-.695 1.554-1.554v-2.492c0-.858-.696-1.554-1.554-1.554z" stroke="#fff" stroke-width="1.33" stroke-miterlimit="10"></path></svg>