<svg width="24" height="25" viewBox="0 0 24 25" fill="none" xmlns="http://www.w3.org/2000/svg"><path d="M8.76273 21.7916C10.6166 21.7916 12.1195 20.2887 12.1195 18.4349C12.1195 16.581 10.6166 15.0781 8.76273 15.0781C6.90886 15.0781 5.406 16.581 5.406 18.4349C5.406 20.2887 6.90886 21.7916 8.76273 21.7916Z" stroke="white" stroke-width="1.63429" stroke-miterlimit="10"></path><path d="M3.51859 23.6225L6.06301 21.0781" stroke="white" stroke-width="1.63429" stroke-miterlimit="10" stroke-linecap="round" stroke-linejoin="round"></path><path d="M4.16365 15.3057V8.25773C4.16365 7.00343 5.17903 6 6.42138 6H18.2237C19.478 6 20.4814 7.01538 20.4814 8.25773V16.7033C20.4814 17.9576 19.466 18.961 18.2237 18.961H14.2458" stroke="white" stroke-width="1.63429" stroke-miterlimit="10" stroke-linecap="round" stroke-linejoin="round"></path><path d="M7.93847 12.2714L10.0648 10.9096C10.459 10.6587 10.9607 10.6587 11.343 10.9215L13.4096 12.2833C13.756 12.5103 14.2219 12.4625 14.5086 12.1758L17.1844 9.5" stroke="white" stroke-width="1.63429" stroke-miterlimit="10" stroke-linecap="round" stroke-linejoin="round"></path></svg>