<svg width="32" height="32" viewBox="0 0 32 32" fill="none" xmlns="http://www.w3.org/2000/svg"><path d="M5.64987 15.9221C12.0923 13.0562 16.3883 11.1669 18.5378 10.254C24.675 7.64769 25.9503 7.19494 26.7815 7.17983C26.9643 7.1767 27.3731 7.22296 27.6379 7.44233C27.8614 7.62756 27.9229 7.87777 27.9524 8.05339C27.9818 8.229 28.0185 8.62906 27.9893 8.94165C27.6567 12.5095 26.2177 21.1679 25.4856 25.164C25.1758 26.8549 24.5658 27.4218 23.9753 27.4773C22.6919 27.5979 21.7174 26.6114 20.4744 25.7794C18.5294 24.4776 17.4305 23.6673 15.5425 22.397C13.3606 20.9289 14.7751 20.122 16.0185 18.8034C16.344 18.4583 21.9985 13.207 22.1079 12.7306C22.1216 12.671 22.1343 12.4489 22.0051 12.3316C21.8759 12.2144 21.6851 12.2545 21.5475 12.2864C21.3524 12.3316 18.2452 14.4285 12.2258 18.5772C11.3439 19.1955 10.545 19.4968 9.82924 19.481C9.04017 19.4636 7.52233 19.0255 6.39397 18.651C5.00999 18.1917 3.91003 17.9488 4.00581 17.1687C4.0557 16.7624 4.60372 16.3469 5.64987 15.9221Z" fill="currentColor"></path></svg>